<svg xmlns="http://www.w3.org/2000/svg" viewBox="0 0 30 30">
  <defs>
    <style>
      .cls-1 {
        fill: #1e7196;
      }

      .cls-2 {
        fill: #fff;
      }
    </style>
  </defs>
  <g id="KI_social_skills" transform="translate(398 477)">
    <circle id="Ellipse_68" data-name="Ellipse 68" class="cls-1" cx="15" cy="15" r="15" transform="translate(-398 -477)"/>
    <path id="Path_109" data-name="Path 109" class="cls-2" d="M3.9,14h0a2.006,2.006,0,0,1-2-2h0a2.006,2.006,0,0,1,2-2h0a2.006,2.006,0,0,1,2,2h0A2.006,2.006,0,0,1,3.9,14Zm3.8,4a3.99,3.99,0,0,0-3.9-3A3.875,3.875,0,0,0,0,18ZM10.9,2h0a2.006,2.006,0,0,0-2-2h0a2.006,2.006,0,0,0-2,2h0a2.006,2.006,0,0,0,2,2h0A2.006,2.006,0,0,0,10.9,2Zm1.8,6A3.99,3.99,0,0,0,8.8,5,3.875,3.875,0,0,0,5,8Zm3.2,4h0a2.006,2.006,0,0,0-2-2h0a2.006,2.006,0,0,0-2,2h0a2.006,2.006,0,0,0,2,2h0A2.006,2.006,0,0,0,15.9,12Zm1.8,6a3.99,3.99,0,0,0-3.9-3,4.079,4.079,0,0,0-3.9,3Z" transform="translate(-392 -471)"/>
  </g>
</svg>
