<svg xmlns="http://www.w3.org/2000/svg" viewBox="0 0 30 30">
  <defs>
    <style>
      .cls-1 {
        fill: #1e7196;
      }

      .cls-2 {
        fill: #fff;
      }
    </style>
  </defs>
  <g id="KI_relationship_with_justice" transform="translate(676 347)">
    <path id="Path_708" data-name="Path 708" class="cls-1" d="M15,0A15,15,0,1,1,0,15,15,15,0,0,1,15,0Z" transform="translate(-676 -347)"/>
    <path id="Path_115" data-name="Path 115" class="cls-2" d="M18.115,13.567a1.142,1.142,0,0,1-1.606.268L9.816,9.1,8.388,11.157l.357.268a.768.768,0,1,1-.892,1.249L2.32,8.748a.741.741,0,0,1-.178-1.071A.741.741,0,0,1,3.213,7.5l.357.268L7.853,1.609,7.5,1.341A.644.644,0,0,1,7.317.36.644.644,0,0,1,8.3.181l5.622,3.926a.768.768,0,0,1-.892,1.249l-.446-.268L10.976,7.32l6.693,4.73A1.01,1.01,0,0,1,18.115,13.567Zm-7.674,1.785H.982a.982.982,0,0,0,0,1.963h9.37a.99.99,0,0,0,.982-.982A.867.867,0,0,0,10.441,15.351Z" transform="translate(-670 -341.026)"/>
  </g>
</svg>
