<svg xmlns="http://www.w3.org/2000/svg" xmlns:xlink="http://www.w3.org/1999/xlink" viewBox="0 0 38 38">
  <defs>
    <style>
      .cls-1 {
        fill: #1e7196;
      }

      .cls-2 {
        fill: #fff;
      }

      .cls-3 {
        fill: url(#linear-gradient);
      }
    </style>
    <linearGradient id="linear-gradient" x1="0.319" y1="0.257" x2="0.762" y2="0.648" gradientUnits="objectBoundingBox">
      <stop offset="0" stop-color="#8bc53f" stop-opacity="0"/>
      <stop offset="1" stop-color="#8bc53f"/>
    </linearGradient>
  </defs>
  <g id="KI_inProgress_school_work" transform="translate(402 611)">
    <g id="KI_school_work_free_time">
      <circle id="Ellipse_68" data-name="Ellipse 68" class="cls-1" cx="15" cy="15" r="15" transform="translate(-398 -607)"/>
      <path id="Path_106" data-name="Path 106" class="cls-2" d="M10,9h6v4a2.006,2.006,0,0,1-2,2H2a2.006,2.006,0,0,1-2-2V9H6v3h4ZM9,11V9H7v2H9Zm7-7V8H0V4A2.006,2.006,0,0,1,2,2H4L5,0h6l1,2h2A2.006,2.006,0,0,1,16,4ZM10,1H6V2h4Z" transform="translate(-391 -599)"/>
    </g>
    <path id="Path_719" data-name="Path 719" class="cls-3" d="M19,2A16.986,16.986,0,0,0,2,19H0A18.992,18.992,0,0,1,19,0h0a19,19,0,0,1,0,38V36A17,17,0,0,0,19,2" transform="translate(-402 -611)"/>
  </g>
</svg>
